<?xml version="1.0" standalone="no"?>
<!DOCTYPE svg PUBLIC "-//W3C//DTD SVG 20010904//EN"
 "http://www.w3.org/TR/2001/REC-SVG-20010904/DTD/svg10.dtd">
<svg version="1.0" xmlns="http://www.w3.org/2000/svg"
 width="677.000000pt" height="677.000000pt" viewBox="0 0 677.000000 677.000000"
 preserveAspectRatio="xMidYMid meet">
<metadata>
Created by potrace 1.14, written by Peter Selinger 2001-2017
</metadata>
<g transform="translate(0.000000,677.000000) scale(0.100000,-0.100000)"
fill="#000000" stroke="none">
<path d="M2552 5370 c-18 -11 -41 -34 -50 -50 -9 -16 -23 -30 -29 -30 -7 0
-13 -5 -13 -11 0 -5 -5 -7 -12 -3 -6 4 -8 3 -4 -4 3 -6 -1 -15 -10 -20 -9 -5
-15 -12 -15 -15 3 -19 0 -21 -9 -7 -8 13 -10 13 -10 -2 0 -9 -5 -20 -12 -24
-7 -5 -8 -3 -3 7 5 8 -9 -4 -31 -26 -22 -22 -40 -44 -40 -49 1 -5 -12 -16 -27
-24 -15 -7 -32 -25 -37 -38 -5 -13 -14 -24 -20 -24 -6 0 -8 -5 -4 -12 4 -6 3
-8 -3 -5 -10 6 -83 -56 -83 -71 0 -12 -38 -41 -45 -34 -3 4 -3 -2 1 -13 4 -11
4 -17 -1 -13 -4 4 -19 -4 -32 -18 -14 -15 -28 -22 -36 -18 -8 5 -7 2 2 -9 12
-15 12 -17 -3 -11 -11 4 -16 1 -16 -12 0 -9 -3 -15 -6 -11 -7 7 -38 -24 -47
-46 -3 -9 -11 -17 -18 -17 -6 0 -8 -7 -5 -16 3 -8 2 -12 -3 -9 -18 10 -21 -13
-5 -43 8 -18 20 -29 28 -26 7 3 21 -6 30 -20 9 -15 23 -26 31 -26 8 0 15 -9
15 -19 0 -11 6 -21 13 -24 6 -2 0 -6 -15 -9 -15 -3 -25 -1 -22 3 3 5 1 9 -5 9
-5 0 -12 -6 -14 -12 -4 -10 -6 -9 -6 1 -1 11 -4 11 -16 1 -11 -9 -15 -9 -15
-1 0 7 -4 9 -10 6 -5 -3 -10 -1 -10 5 0 7 -6 8 -19 1 -10 -6 -21 -7 -25 -4 -3
4 -56 8 -116 10 -86 2 -109 0 -104 -10 6 -9 4 -9 -7 -1 -16 12 -298 12 -317 0
-7 -4 -12 -3 -12 3 0 12 -41 11 -57 -2 -9 -6 -13 -6 -13 1 0 12 -103 8 -122
-4 -6 -4 -8 -2 -4 4 3 6 2 13 -4 17 -5 3 -10 2 -10 -3 0 -8 -35 -7 -115 2 -11
1 -26 -3 -34 -8 -12 -9 -13 -8 -6 3 6 11 3 13 -13 9 -13 -4 -22 -1 -22 5 0 8
-3 8 -8 2 -4 -6 -20 -10 -37 -9 -16 0 -38 -3 -47 -7 -10 -6 -18 -5 -20 3 -3 8
-10 8 -26 -1 -14 -8 -22 -8 -22 -1 0 5 -9 10 -21 10 -13 0 -18 -4 -13 -12 5
-7 3 -8 -7 -2 -8 4 -25 9 -39 9 -14 0 -31 5 -39 9 -9 6 -12 5 -8 -1 4 -6 0
-14 -9 -17 -8 -3 -12 -2 -9 4 8 12 -36 9 -54 -4 -11 -8 -13 -8 -7 1 5 10 -1
11 -26 8 -18 -3 -39 -6 -45 -7 -7 -1 -13 -5 -13 -10 0 -4 -5 -8 -11 -8 -5 0
-8 4 -5 8 3 5 -1 9 -9 9 -8 0 -15 -3 -15 -7 0 -4 -17 -6 -37 -5 -45 2 -65 -4
-57 -16 3 -5 0 -9 -6 -9 -16 0 -29 -43 -18 -57 7 -9 7 -13 -1 -13 -9 0 -9 -27
-1 -50 2 -3 1 -9 -1 -15 -3 -11 -8 -173 -10 -318 -1 -53 3 -93 10 -101 8 -10
9 -16 2 -21 -11 -6 -9 -54 3 -74 4 -6 4 -11 -1 -11 -10 0 -9 -52 1 -68 4 -6 2
-20 -3 -30 -6 -11 -7 -22 -4 -26 9 -9 9 -65 0 -59 -12 7 -4 -31 8 -39 6 -5 5
-8 -4 -8 -11 0 -11 -3 -1 -15 10 -12 10 -15 -1 -15 -11 0 -11 -2 1 -10 9 -6
10 -10 3 -10 -11 0 -9 -42 3 -62 3 -4 0 -8 -6 -8 -7 0 -8 -6 0 -19 6 -13 7
-22 0 -26 -6 -4 -6 -15 0 -30 7 -17 6 -25 -1 -25 -8 0 -8 -4 0 -14 6 -8 9 -28
6 -45 -3 -17 -1 -31 5 -31 6 0 6 -9 0 -24 -5 -13 -6 -27 -2 -30 3 -4 6 -23 7
-44 1 -21 4 -42 7 -47 3 -6 4 -19 2 -30 -1 -11 -5 -37 -8 -57 -4 -25 -2 -38 5
-38 8 0 9 -4 0 -13 -6 -8 -8 -17 -4 -20 3 -4 1 -7 -7 -7 -10 0 -10 -3 0 -15 7
-9 10 -18 7 -22 -4 -3 -1 -13 6 -21 8 -11 9 -14 0 -9 -8 5 -11 0 -10 -13 1
-11 5 -20 9 -20 5 0 4 -10 -3 -21 -8 -15 -8 -19 0 -15 10 6 17 -37 12 -68 -1
-4 4 -14 10 -22 9 -11 9 -14 0 -14 -7 0 -10 -4 -6 -9 3 -5 1 -12 -5 -16 -18
-11 -12 -38 8 -31 15 5 15 4 2 -6 -9 -8 -14 -26 -12 -43 8 -89 8 -302 0 -318
-6 -11 -6 -23 1 -30 9 -12 6 -101 -5 -118 -2 -4 -1 -10 3 -12 5 -3 7 -30 7
-61 -1 -31 3 -56 8 -56 5 0 6 -5 3 -10 -4 -6 -12 -7 -18 -3 -7 4 -5 -2 3 -12
9 -11 10 -16 3 -11 -7 4 -13 2 -13 -3 0 -6 6 -11 13 -11 9 0 8 -3 -2 -9 -7 -5
-10 -14 -7 -20 4 -6 2 -11 -4 -11 -6 0 -8 -5 -3 -12 4 -7 6 -21 4 -32 -1 -10
3 -23 11 -27 10 -7 10 -9 1 -9 -7 0 -13 -7 -13 -16 0 -8 4 -13 9 -10 4 3 6 -6
3 -19 -2 -15 0 -25 7 -25 9 0 9 -6 0 -22 -6 -13 -8 -20 -4 -15 5 4 19 0 32 -8
17 -12 28 -13 42 -5 14 7 22 7 26 0 5 -8 11 -8 20 0 8 7 15 7 19 1 7 -11 25
-9 45 3 9 6 12 5 8 -1 -4 -6 6 -13 24 -15 16 -3 32 -1 35 4 3 4 14 3 25 -3 17
-9 18 -13 8 -25 -10 -13 -10 -17 0 -24 10 -6 10 -9 1 -15 -6 -4 -9 -13 -6 -20
3 -8 0 -15 -6 -17 -7 -3 -5 -10 5 -19 10 -11 12 -20 5 -32 -6 -12 -5 -17 3
-17 8 0 9 -4 1 -13 -12 -14 -11 -82 1 -93 4 -4 7 -1 7 6 0 9 5 7 14 -6 8 -10
18 -16 21 -12 4 4 16 3 26 -3 13 -7 19 -6 19 1 0 6 13 9 28 8 15 -1 33 1 39 5
6 4 15 3 18 -3 5 -8 11 -7 21 1 8 6 17 9 21 6 3 -4 14 -2 24 4 11 5 19 6 18 2
-3 -20 2 -27 12 -13 9 13 10 13 6 -2 -3 -9 1 -24 8 -35 8 -10 15 -24 15 -32 0
-19 62 -77 77 -73 7 2 13 -3 13 -10 0 -9 3 -9 10 2 6 9 10 10 10 3 0 -13 7
-14 88 -15 28 0 52 -5 52 -10 0 -5 6 -6 12 -1 16 9 36 14 70 16 14 1 26 4 26
7 -1 19 3 30 11 25 5 -3 12 4 16 15 4 11 11 18 16 15 9 -6 11 -1 13 28 1 6 8
18 16 25 13 12 13 13 0 6 -9 -4 -12 -3 -7 2 10 10 13 11 68 13 29 1 38 4 33
14 -6 9 -5 9 8 -1 18 -15 76 -23 83 -11 5 8 37 5 54 -5 5 -3 12 1 15 9 4 12
10 14 25 5 29 -15 80 -19 85 -6 3 7 8 6 15 -4 8 -11 11 -11 11 -2 0 9 7 9 30
-3 23 -12 30 -12 30 -3 0 10 2 10 9 -1 6 -9 11 -10 15 -2 4 6 12 11 17 11 6 0
8 -4 5 -8 -2 -4 4 -8 14 -8 10 0 17 4 14 8 -2 4 5 6 16 5 11 -1 20 -4 20 -7 0
-4 7 -7 15 -7 8 0 15 4 15 9 0 5 9 4 20 -2 11 -6 31 -8 44 -6 14 3 30 -2 37
-10 7 -9 16 -11 23 -5 13 10 128 7 146 -4 8 -5 11 -4 6 3 -4 7 1 10 14 9 11
-1 20 -5 20 -9 0 -5 9 -4 20 2 15 8 20 8 20 -1 0 -7 3 -9 7 -6 3 4 12 2 20 -4
10 -9 13 -8 13 1 0 8 3 10 7 7 3 -4 12 -2 20 4 7 6 13 7 13 2 0 -10 140 -10
158 1 7 4 12 2 12 -4 0 -6 5 -8 12 -4 19 12 48 12 48 1 0 -6 5 -5 13 1 6 5 38
9 70 8 32 -1 61 2 64 8 4 5 1 6 -7 1 -9 -5 -11 -4 -6 3 5 9 12 8 27 -1 16 -10
21 -9 29 3 6 9 10 10 10 3 0 -7 7 -10 15 -7 8 4 13 10 10 14 -3 4 6 7 20 6 14
0 25 -5 25 -11 0 -5 5 -2 11 8 8 13 14 15 29 7 10 -5 20 -6 22 -1 2 5 17 12
34 15 23 5 32 4 31 -6 0 -7 1 -24 1 -37 2 -21 4 -22 20 -10 9 7 14 9 10 5 -4
-5 2 -25 14 -45 13 -20 21 -38 20 -41 -2 -3 7 -7 19 -8 12 -2 31 -14 41 -25
11 -12 16 -16 12 -8 -5 10 -3 12 7 5 8 -5 21 -9 30 -9 9 0 23 -6 32 -13 10 -9
17 -10 22 -2 3 5 16 10 29 10 12 0 28 6 35 13 11 10 13 9 7 -3 -4 -8 0 -6 8 4
9 11 16 23 16 28 0 4 6 7 12 5 7 -1 14 8 16 21 2 12 10 22 18 22 8 0 12 5 9
10 -4 6 -1 18 7 27 11 14 11 16 -2 8 -12 -6 -13 -5 -2 6 6 7 12 21 12 31 0 10
5 18 11 18 6 0 9 14 7 33 -3 29 -1 32 27 33 17 1 42 7 57 12 17 7 30 8 33 2 4
-6 12 -6 23 0 33 18 115 29 136 18 16 -9 18 -8 12 7 -5 15 -4 16 9 5 11 -9 15
-9 15 -1 0 7 4 9 10 6 5 -3 19 -1 31 6 17 9 20 8 13 -3 -6 -11 -5 -11 8 0 13
10 17 10 22 -3 3 -9 10 -13 16 -10 5 3 10 1 10 -4 0 -6 -6 -11 -12 -11 -7 0
-5 -5 5 -11 9 -6 15 -14 12 -18 -2 -5 3 -15 12 -22 14 -12 16 -12 8 0 -6 10
-4 12 4 7 7 -5 10 -13 8 -20 -2 -6 5 -20 16 -31 11 -11 17 -14 13 -5 -4 8 0 6
8 -4 9 -11 16 -17 16 -13 0 4 11 2 25 -3 16 -6 25 -6 25 0 0 6 9 6 25 0 19 -7
27 -6 34 8 7 12 10 13 11 3 0 -11 3 -11 15 -1 8 6 18 9 24 6 5 -3 12 1 15 10
4 9 13 14 22 10 8 -3 13 -2 11 2 -5 10 30 42 38 34 3 -4 3 2 -1 12 -6 15 -4
17 6 11 10 -6 12 -4 7 8 -4 11 -1 17 7 17 7 0 13 7 14 15 1 8 3 22 4 30 1 8 5
15 10 15 5 0 7 4 4 9 -7 11 29 53 38 44 3 -3 6 -1 6 5 0 6 11 9 25 6 14 -2 25
-1 25 4 0 5 7 9 15 9 8 0 15 -5 15 -11 0 -8 2 -8 8 0 13 19 198 42 186 23 -3
-5 1 -9 8 -9 10 0 9 -3 -2 -11 -11 -8 -12 -12 -2 -16 6 -2 12 -11 12 -19 0 -8
5 -14 11 -14 6 0 9 -8 7 -18 -4 -15 -1 -18 20 -14 16 3 23 1 18 -6 -3 -6 -1
-14 5 -18 6 -3 15 0 20 7 5 8 9 9 9 3 0 -8 19 -12 50 -11 28 0 50 4 50 10 0 5
7 4 15 -3 10 -9 15 -9 15 -1 0 6 8 11 18 11 23 0 78 48 74 66 -2 8 4 14 13 14
13 0 14 4 4 22 -6 13 -8 20 -4 16 9 -8 35 24 53 66 10 22 15 26 26 17 10 -8
16 -8 25 3 7 8 21 12 33 8 15 -3 19 -2 14 7 -5 8 0 10 18 7 15 -3 32 1 40 10
18 17 30 18 20 2 -6 -10 -4 -10 7 -2 8 5 21 10 29 9 8 -1 23 2 32 7 10 5 18 3
20 -3 3 -8 10 -6 20 5 10 10 19 12 23 6 3 -5 11 -10 16 -10 6 0 7 4 4 10 -4 6
6 7 26 3 26 -5 30 -3 24 8 -7 12 -6 12 7 1 13 -10 17 -10 21 0 3 8 9 1 16 -15
13 -33 36 -59 45 -50 3 4 6 0 6 -8 0 -16 66 -20 89 -5 10 7 12 6 6 -4 -5 -8
-4 -11 2 -7 6 4 16 20 23 37 7 16 16 28 19 25 10 -6 10 29 0 35 -4 3 13 17 38
30 33 17 48 21 51 12 2 -8 9 -9 20 -3 30 16 97 6 120 -17 12 -12 22 -26 22
-32 0 -5 5 -10 10 -10 6 0 10 5 10 12 0 9 3 9 12 0 15 -15 48 -16 48 -2 0 6 8
10 17 10 9 0 13 3 10 7 -4 3 2 13 14 21 11 8 18 20 15 28 -3 8 -1 14 4 14 5 0
7 6 4 13 -3 9 6 13 33 13 20 0 38 5 41 12 3 10 7 10 18 1 11 -9 14 -8 14 1 0
8 3 10 6 7 4 -3 15 -2 25 4 14 7 19 6 19 -5 0 -7 6 -25 13 -38 10 -20 20 -25
50 -24 20 1 39 -3 41 -9 3 -5 5 -3 5 7 1 11 7 15 21 11 16 -4 20 0 20 21 0 15
4 25 9 22 10 -7 24 40 16 54 -3 5 7 5 23 1 33 -10 62 2 62 26 0 9 6 13 15 9 9
-3 15 0 15 8 0 8 11 16 23 20 24 6 29 28 13 54 -4 7 -2 12 8 12 12 0 13 6 6
30 -5 19 -5 28 1 25 5 -4 9 1 9 10 0 9 -4 14 -8 11 -5 -3 -9 1 -9 9 0 8 5 13
11 12 6 -1 10 7 8 18 -7 41 -7 205 0 205 4 0 4 10 1 23 -3 12 -6 64 -8 116 -1
85 -4 96 -24 112 -13 11 -29 19 -36 19 -7 0 -15 9 -18 21 -3 12 -10 18 -16 14
-6 -3 -11 -2 -11 4 0 6 -8 8 -17 4 -10 -3 -15 -3 -11 2 11 11 -18 35 -46 37
-13 1 -23 5 -20 9 2 4 0 10 -6 14 -5 3 -10 0 -10 -7 0 -10 -3 -9 -9 2 -6 8 -7
19 -3 25 3 5 -2 4 -11 -4 -15 -12 -17 -12 -11 3 6 14 -5 21 -28 17 -5 0 -8 4
-8 10 0 5 -4 7 -10 4 -5 -3 -22 5 -37 19 -15 15 -33 26 -40 26 -20 0 -15 34 7
53 11 9 20 13 21 9 0 -4 5 4 10 17 8 19 6 27 -6 34 -8 4 -13 12 -10 18 4 5 -2
9 -11 9 -10 0 -14 3 -11 6 7 7 -30 44 -45 44 -4 0 -8 6 -8 13 0 6 -11 25 -25
41 -14 16 -25 33 -25 38 0 4 -7 8 -15 8 -8 0 -28 14 -46 31 -18 18 -37 28 -46
25 -8 -3 -19 -6 -24 -6 -4 0 -6 -6 -3 -14 3 -9 -6 -17 -25 -24 -17 -6 -31 -18
-31 -26 0 -9 -5 -16 -11 -16 -7 0 -27 -16 -46 -35 -34 -36 -50 -45 -37 -22 5
8 2 8 -9 -2 -15 -12 -17 -11 -17 4 0 12 -6 16 -18 13 -10 -3 -23 1 -30 9 -7 7
-22 13 -32 13 -11 0 -20 5 -20 10 0 6 -7 10 -15 10 -8 0 -15 4 -15 9 0 5 -16
12 -36 15 -19 4 -38 14 -41 22 -4 11 -9 12 -19 3 -10 -8 -14 -8 -14 0 0 6 -6
11 -14 11 -8 0 -18 5 -22 12 -5 8 -2 9 9 5 11 -4 17 -1 17 9 0 8 4 13 9 10 5
-3 11 1 15 9 3 8 12 15 20 15 45 0 34 73 -14 97 -14 7 -19 13 -12 13 6 0 12 5
12 11 0 5 -4 8 -9 4 -5 -3 -12 -1 -16 5 -4 6 -12 7 -18 3 -7 -4 -6 0 2 10 12
15 11 17 -9 17 -17 0 -21 4 -16 17 4 10 4 14 0 11 -9 -9 -46 11 -40 21 3 4 -6
14 -19 21 -14 7 -25 22 -25 32 0 10 -7 18 -15 18 -8 0 -15 8 -15 17 0 9 -3 13
-6 10 -7 -6 -38 24 -54 52 -14 26 -65 17 -98 -17 -16 -17 -27 -33 -24 -36 3
-3 -2 -6 -11 -6 -10 0 -17 -7 -17 -15 0 -8 -5 -15 -11 -15 -5 0 -8 -4 -5 -9 4
-5 2 -11 -3 -13 -5 -1 -11 -9 -13 -17 -4 -18 24 -22 40 -5 10 11 10 14 0 14
-7 0 -1 8 12 17 14 9 28 22 32 27 5 7 8 7 9 1 0 -5 4 -1 8 9 4 11 20 21 35 23
16 2 25 0 22 -5 -3 -6 1 -13 10 -16 10 -4 13 -2 9 7 -4 6 0 3 9 -7 8 -10 13
-23 10 -27 -3 -5 2 -6 10 -3 9 4 16 1 16 -6 0 -7 7 -10 15 -7 8 4 17 2 20 -3
4 -6 2 -10 -3 -10 -5 0 -9 -7 -9 -15 0 -8 3 -12 7 -10 4 2 16 -3 26 -11 10 -9
13 -13 7 -9 -7 3 -13 1 -13 -4 0 -6 9 -11 20 -11 11 0 20 -7 20 -15 0 -9 7
-18 15 -21 8 -4 15 -11 15 -18 0 -13 44 -56 58 -56 5 0 9 -10 8 -22 -1 -16 -8
-24 -23 -26 -16 -2 -20 -8 -16 -20 3 -9 3 -14 -2 -10 -4 4 -15 3 -22 -4 -8 -6
-52 -13 -100 -14 -52 -1 -80 2 -72 7 10 6 8 9 -9 9 -12 0 -25 7 -28 15 -4 8
-12 15 -20 15 -8 0 -14 5 -14 10 0 6 -7 10 -15 10 -8 0 -15 5 -15 11 0 5 -16
17 -35 25 -19 8 -35 19 -35 25 0 5 -4 8 -9 5 -5 -3 -12 1 -15 10 -3 9 -11 12
-18 8 -8 -5 -9 -2 -5 10 4 10 7 24 7 32 0 9 5 12 10 9 15 -9 24 23 13 48 -9
20 -10 20 -28 -11 -11 -17 -26 -34 -34 -38 -23 -9 -62 -13 -58 -6 5 10 -30 42
-37 34 -3 -3 -6 2 -6 11 0 10 -5 14 -15 11 -8 -4 -15 -1 -15 5 0 6 -7 11 -15
11 -8 0 -15 6 -15 13 0 8 -4 7 -10 -3 -6 -10 -10 -11 -10 -2 0 6 -6 11 -12 10
-7 -2 -12 3 -10 10 1 6 -2 12 -8 12 -17 0 -24 3 -37 14 -37 33 -48 41 -60 42
-7 1 -11 -2 -7 -7 12 -19 -7 -7 -38 24 -17 17 -27 25 -23 17 7 -12 6 -13 -7
-3 -8 7 -18 9 -22 5 -4 -4 -6 0 -4 8 2 9 -6 16 -20 18 -12 2 -20 8 -17 13 4 5
-4 9 -17 9 -28 1 -69 30 -50 37 6 3 12 10 12 17 0 7 20 25 45 40 24 16 43 32
41 35 -3 4 8 12 24 19 20 9 27 19 26 37 0 14 -5 25 -9 25 -5 0 -6 4 -3 9 7 11
-29 53 -38 43 -4 -4 -7 -2 -6 3 4 19 0 38 -7 32 -7 -8 -39 34 -35 46 1 5 -2 5
-8 2 -7 -4 -14 2 -17 15 -3 12 -11 19 -19 16 -8 -3 -13 -2 -11 2 1 4 -19 29
-46 55 -26 27 -45 52 -42 57 3 5 -4 11 -15 15 -11 4 -18 10 -15 15 3 5 -10 16
-30 26 -19 9 -35 22 -35 29 0 16 -54 75 -69 75 -6 0 -11 7 -11 15 0 8 -3 15
-7 16 -31 3 -49 10 -58 22 -12 16 -55 29 -55 17 0 -5 -9 -12 -21 -15 -12 -4
-18 -12 -15 -21 3 -8 -1 -14 -9 -14 -8 0 -20 -9 -27 -20 -7 -11 -18 -20 -25
-20 -7 0 -13 -7 -13 -15 0 -8 -3 -14 -7 -14 -21 3 -24 -3 -12 -18 12 -15 12
-16 -3 -10 -12 4 -19 0 -23 -14 -4 -12 -12 -18 -21 -15 -8 3 -14 0 -14 -7 0
-19 -60 -68 -73 -60 -7 3 -9 3 -6 -1 4 -4 -4 -18 -18 -32 -13 -13 -22 -28 -19
-33 3 -5 -10 -11 -30 -13 -19 -2 -38 0 -40 4 -3 5 -10 6 -15 3 -5 -4 -9 1 -9
10 0 11 -5 15 -15 11 -8 -3 -15 -1 -15 4 0 6 -11 10 -25 10 -14 0 -24 5 -22
12 1 7 -3 12 -10 13 -6 0 -15 3 -19 8 -4 4 -15 7 -25 7 -20 0 -71 25 -64 32 3
2 -1 5 -9 5 -7 0 -44 17 -82 38 -62 35 -78 41 -121 47 -7 1 -13 5 -13 10 0 5
-4 7 -9 3 -5 -3 -12 -1 -16 5 -4 6 -11 8 -16 5 -5 -4 -12 0 -15 9 -3 9 -12 12
-21 9 -12 -5 -14 -3 -8 7 5 9 4 11 -4 6 -22 -14 -71 4 -71 25 0 11 4 18 8 15
5 -3 15 5 22 19 8 15 18 21 28 18 10 -4 13 -2 8 5 -4 8 3 16 18 22 14 5 26 14
26 20 0 6 5 8 12 4 7 -5 9 -2 5 8 -4 12 -1 14 15 10 14 -3 19 -1 14 6 -4 7 1
9 15 7 17 -3 20 0 16 15 -3 11 -1 20 4 20 5 0 8 14 7 30 -2 21 -7 30 -20 30
-16 0 -23 17 -19 43 0 4 -7 7 -17 7 -10 0 -19 7 -19 15 0 8 4 15 9 15 5 0 3 6
-4 14 -7 8 -15 12 -17 10 -7 -7 -41 17 -36 26 3 5 -3 11 -12 15 -10 3 -33 26
-51 51 -19 26 -39 43 -47 40 -9 -3 -11 2 -8 15 4 15 0 19 -18 19 -17 0 -20 3
-10 9 9 6 10 11 2 15 -6 4 -15 4 -21 1 -5 -3 -10 4 -10 15 0 15 -5 20 -14 17
-10 -4 -13 -1 -9 9 3 7 0 14 -6 14 -6 0 -11 5 -11 11 0 6 -22 32 -50 59 -27
27 -50 53 -50 59 0 6 -7 11 -16 11 -8 0 -41 27 -73 59 -33 33 -62 57 -65 54
-3 -4 -6 -1 -6 5 0 7 -6 12 -14 12 -8 0 -18 5 -22 12 -5 7 -3 8 7 3 12 -8 12
-6 0 8 -18 23 -49 21 -89 -3z m70 -89 c13 -19 18 -21 42 -21 7 0 16 -9 19 -21
3 -12 10 -18 16 -15 5 4 11 -4 13 -16 2 -13 12 -24 26 -28 13 -3 22 -9 21 -15
-1 -5 11 -17 27 -26 16 -9 28 -22 26 -29 -1 -6 2 -9 8 -5 5 3 15 -6 20 -20 5
-14 14 -23 20 -20 5 3 10 0 10 -8 0 -15 27 -32 44 -28 5 1 4 -5 -4 -13 -10
-13 -10 -16 4 -16 10 0 15 -4 11 -10 -3 -5 6 -17 20 -26 14 -9 25 -20 25 -25
0 -12 77 -89 83 -83 2 3 11 -9 19 -26 8 -17 18 -31 22 -31 20 2 27 0 21 -8 -3
-5 6 -22 20 -37 13 -14 22 -30 19 -35 -3 -5 0 -9 5 -9 6 0 9 -10 7 -22 -1 -13
-6 -22 -10 -20 -8 3 -66 -26 -66 -34 0 -3 6 -2 13 2 8 5 8 2 -2 -9 -7 -9 -22
-17 -33 -17 -10 0 -16 -4 -13 -10 3 -5 1 -10 -5 -10 -6 0 -8 -4 -5 -10 4 -6
-1 -7 -11 -3 -13 5 -15 3 -9 -7 6 -10 4 -12 -8 -7 -11 4 -17 1 -17 -7 0 -21
-22 -25 -52 -9 -22 11 -28 11 -29 1 0 -10 -2 -10 -6 0 -2 6 -9 10 -14 6 -5 -3
-9 -2 -9 3 0 4 -36 8 -80 8 -44 0 -80 -3 -80 -8 0 -4 -5 -5 -11 -1 -6 3 -30 8
-52 9 -23 2 -46 4 -52 5 -5 1 -13 1 -17 0 -22 -7 -68 -4 -68 4 0 6 -5 5 -12
-2 -7 -7 -17 -8 -30 -1 -10 5 -18 6 -18 2 0 -4 -13 -8 -30 -8 -16 0 -30 3 -30
8 0 4 -5 7 -11 7 -5 0 -7 -5 -3 -11 4 -7 -1 -7 -16 1 -12 6 -24 9 -27 6 -4 -3
-13 0 -21 7 -13 10 -15 9 -9 -6 6 -17 5 -17 -15 -2 -24 16 -42 20 -34 6 3 -4
-6 -7 -19 -5 -14 1 -28 -2 -31 -8 -4 -7 -9 -6 -13 1 -4 6 -19 12 -34 13 -15 1
-29 10 -32 19 -3 9 -17 22 -30 29 -14 7 -25 19 -25 26 0 7 -9 16 -20 19 -11 3
-20 11 -20 16 0 5 -7 9 -15 9 -10 0 -14 7 -11 23 3 12 5 25 5 30 1 4 8 7 16 7
13 0 16 5 15 25 -1 10 28 35 39 35 6 0 11 5 11 10 0 6 3 9 8 8 4 -1 27 18 52
42 25 24 39 41 33 37 -9 -6 -11 -3 -7 7 3 9 9 15 12 14 22 -2 31 4 25 19 -5
13 -2 15 11 10 13 -5 19 -1 23 14 3 11 11 18 18 15 8 -3 16 6 20 21 3 14 8 23
12 20 8 -8 73 65 67 75 -3 5 -2 8 3 7 23 -4 35 2 29 17 -3 8 -2 13 2 10 13 -8
45 22 39 37 -4 11 0 13 16 10 18 -4 19 -3 7 6 -13 9 -13 11 3 11 9 0 17 5 17
10 0 6 7 10 15 10 8 0 15 5 15 11 0 6 6 9 14 6 9 -4 13 0 12 11 -3 18 20 41
41 42 6 0 18 -8 25 -19z m1512 -873 c16 -16 32 -28 37 -28 4 0 11 -9 14 -20 3
-11 11 -20 16 -20 17 0 89 -75 89 -93 0 -10 4 -16 9 -13 5 3 12 -1 15 -10 3
-9 11 -12 18 -8 7 4 10 4 6 -1 -4 -4 0 -14 10 -22 9 -8 11 -12 5 -8 -9 4 -11
1 -7 -9 3 -9 10 -13 15 -10 5 3 9 0 9 -6 0 -6 4 -8 10 -5 6 4 7 -1 3 -12 -3
-10 -2 -15 2 -10 11 10 46 -23 38 -36 -3 -6 -1 -7 6 -3 6 4 18 0 27 -8 8 -9
12 -16 7 -16 -4 0 0 -5 10 -11 17 -10 24 -59 8 -59 -14 0 -60 -48 -53 -56 4
-4 2 -4 -4 -1 -13 8 -56 -21 -49 -33 3 -5 -5 -7 -17 -4 -13 3 -29 6 -35 6 -7
1 -13 5 -13 10 0 5 -10 7 -22 4 -13 -3 -17 -3 -10 0 18 9 15 24 -5 17 -10 -4
-14 -2 -9 5 4 7 -1 10 -13 7 -11 -2 -22 3 -25 11 -3 8 -12 14 -21 14 -8 0 -15
3 -15 8 0 8 -48 32 -66 32 -7 0 -14 5 -16 11 -2 5 -10 11 -18 12 -8 2 -21 6
-27 10 -7 5 -17 6 -22 2 -5 -3 -16 2 -25 10 -8 8 -19 15 -23 14 -20 -3 -34 2
-28 11 3 6 -2 10 -12 10 -10 0 -27 7 -37 15 -10 8 -23 12 -27 9 -5 -3 -9 -1
-9 5 0 5 -8 8 -17 7 -22 -4 -66 29 -69 50 -1 9 0 14 2 11 6 -6 84 71 84 83 0
5 5 10 11 10 5 0 7 6 4 13 -4 6 1 3 11 -8 14 -16 16 -17 11 -3 -4 11 0 21 11
27 10 5 24 21 31 34 7 14 28 33 47 43 18 10 30 22 27 27 -3 4 4 11 16 14 12 3
21 10 21 15 0 11 17 -1 64 -44z m1789 -1107 c4 -1 7 -6 7 -12 0 -6 11 -24 25
-41 14 -16 25 -24 25 -16 0 10 2 10 9 -2 6 -8 8 -17 5 -21 -2 -4 4 -14 14 -21
10 -7 21 -21 25 -30 3 -10 12 -15 20 -13 9 4 13 -4 12 -25 0 -23 -8 -34 -29
-45 -18 -10 -33 -12 -40 -6 -11 9 -17 11 -36 11 -5 0 -10 6 -10 14 0 9 -7 12
-20 9 -12 -3 -20 0 -20 7 0 7 -7 10 -15 6 -9 -3 -15 0 -15 9 0 8 -5 15 -11 15
-5 0 -7 -6 -4 -12 4 -7 0 -5 -9 6 -8 10 -19 15 -24 12 -11 -7 -65 18 -81 38
-9 11 -9 16 0 22 8 5 9 3 4 -6 -5 -9 -4 -11 4 -6 9 6 9 11 -1 24 -11 14 -10
15 6 9 14 -5 17 -3 12 8 -3 8 -2 14 2 14 21 -3 43 2 38 9 -5 9 22 36 45 45 8
3 23 3 34 2 11 -2 23 -4 28 -4z"/>
<path d="M4260 4396 c0 -2 8 -10 18 -17 15 -13 16 -12 3 4 -13 16 -21 21 -21
13z"/>
</g>
</svg>
